<?xml version="1.0" standalone="no"?>
<!DOCTYPE svg PUBLIC "-//W3C//DTD SVG 20010904//EN"
 "http://www.w3.org/TR/2001/REC-SVG-20010904/DTD/svg10.dtd">
<svg version="1.0" xmlns="http://www.w3.org/2000/svg"
 width="750.000000pt" height="1334.000000pt" viewBox="0 0 750.000000 1334.000000"
 preserveAspectRatio="xMidYMid meet">

<g transform="translate(0.000000,1334.000000) scale(0.100000,-0.100000)"
fill="#000000" stroke="none">
<path d="M0 6670 l0 -6670 3750 0 3750 0 0 6670 0 6670 -3750 0 -3750 0 0
-6670z m6110 3430 c0 -20 41 -50 67 -50 l27 0 -27 -28 c-23 -23 -26 -34 -21
-61 l7 -33 -32 16 c-29 15 -33 15 -62 0 l-32 -16 7 33 c5 27 2 38 -21 61 l-27
28 27 0 c26 0 67 30 67 50 0 6 5 10 10 10 6 0 10 -4 10 -10z m-3792 -1287 c-6
-7 -8 -18 -5 -25 3 -9 -5 -13 -24 -13 -16 0 -29 5 -29 12 0 6 -3 18 -6 27 -4
11 -1 16 10 16 9 0 16 4 16 9 0 5 11 4 24 -2 18 -9 22 -15 14 -24z m2861
-1083 c13 0 15 -17 1 -25 -5 -3 -7 -12 -4 -19 4 -9 -4 -13 -25 -12 -21 1 -31
6 -31 17 0 8 -5 20 -12 27 -9 9 -8 12 5 12 10 0 20 7 24 16 6 16 7 16 18 0 7
-9 17 -16 24 -16z m-459 -5 c0 -3 -11 -27 -24 -53 -42 -84 -60 -160 -60 -262
0 -168 61 -307 187 -426 76 -72 140 -108 244 -139 l72 -21 -61 -100 c-84 -138
-79 -134 -157 -134 -194 1 -367 97 -485 272 -66 99 -89 169 -94 288 -5 123 10
199 61 300 42 85 161 206 242 248 61 31 75 36 75 27z m-3981 -1295 c13 0 15
-17 1 -25 -5 -3 -7 -11 -4 -18 3 -8 -6 -12 -26 -12 -20 0 -30 5 -30 16 0 8 -5
20 -12 27 -9 9 -8 12 5 12 10 0 20 7 24 16 6 16 7 16 18 0 7 -9 17 -16 24 -16z"/>
</g>
</svg>
